{
    "asset" : {
        "generator" : "Khronos glTF Blender I/O v3.4.50",
        "version" : "2.0"
    },
    "scene" : 0,
    "scenes" : [
        {
            "name" : "Scene",
            "nodes" : [
                1,
                2,
                3,
                4,
                5,
                6,
                7,
                8,
                9,
                10,
                11,
                13,
                14,
                15,
                16,
                17,
                18,
                19,
                20,
                21,
                22,
                23,
                24,
                25,
                26
            ]
        }
    ],
    "nodes" : [
        {
            "mesh" : 0,
            "name" : "Dragon Fire",
            "scale" : [
                0.02539999969303608,
                0.02539999969303608,
                0.02539999969303608
            ]
        },
        {
            "children" : [
                0
            ],
            "name" : "Node_1",
            "rotation" : [
                -0.7071067690849304,
                0,
                0,
                0.7071068286895752
            ],
            "scale" : [
                0.3937007784843445,
                0.3937007784843445,
                0.3937007784843445
            ]
        },
        {
            "name" : "Node_3",
            "rotation" : [
                0,
                -0.6646037101745605,
                -0.7471960186958313,
                5.821685533646814e-08
            ],
            "scale" : [
                0.3937007486820221,
                0.3937007784843445,
                0.3937007784843445
            ],
            "translation" : [
                0,
                0.7310448884963989,
                -0.023974435403943062
            ]
        },
        {
            "name" : "Node_5",
            "rotation" : [
                0,
                -0.6428197622299194,
                -0.7660174369812012,
                6.052528078726027e-08
            ],
            "scale" : [
                0.3937007486820221,
                0.3937007486820221,
                0.3937007486820221
            ],
            "translation" : [
                0,
                1.100628137588501,
                -0.11312475800514221
            ]
        },
        {
            "name" : "Node_7",
            "rotation" : [
                0.42605963349342346,
                0.5203648209571838,
                0.47804853320121765,
                0.5649452805519104
            ],
            "scale" : [
                0.3937007784843445,
                0.39370083808898926,
                0.3937007784843445
            ],
            "translation" : [
                0.3748907446861267,
                1.0900448560714722,
                -0.004194431006908417
            ]
        },
        {
            "name" : "Node_9",
            "rotation" : [
                0.0429815910756588,
                0.00854080356657505,
                0.7201384902000427,
                0.6924450397491455
            ],
            "scale" : [
                0.3937007486820221,
                0.3937007188796997,
                0.3937007486820221
            ],
            "translation" : [
                0.6339312195777893,
                1.0942399501800537,
                0.020631151273846626
            ]
        },
        {
            "name" : "Node_11",
            "rotation" : [
                0.4260597229003906,
                -0.5203648209571838,
                -0.4780486524105072,
                0.5649452209472656
            ],
            "scale" : [
                0.39370083808898926,
                0.39370083808898926,
                0.39370080828666687
            ],
            "translation" : [
                -0.3748907446861267,
                1.0900448560714722,
                -0.004194336012005806
            ]
        },
        {
            "name" : "Node_13",
            "rotation" : [
                0.04298146441578865,
                -0.008540655486285686,
                -0.720138430595398,
                0.6924451589584351
            ],
            "scale" : [
                0.3937007784843445,
                0.3937007486820221,
                0.3937007486820221
            ],
            "translation" : [
                -0.6339312195777893,
                1.0942399501800537,
                0.020631320774555206
            ]
        },
        {
            "name" : "Node_15",
            "rotation" : [
                0.0040178257040679455,
                0,
                0,
                0.9999920129776001
            ],
            "scale" : [
                0.3937007784843445,
                0.3937007784843445,
                0.3937007784843445
            ],
            "translation" : [
                -0.6492852568626404,
                1.0844061374664307,
                0.2280699461698532
            ]
        },
        {
            "name" : "Node_17",
            "rotation" : [
                0.0040192632004618645,
                0,
                0,
                0.9999918937683105
            ],
            "scale" : [
                0.3937007486820221,
                0.3937007784843445,
                0.3937007784843445
            ],
            "translation" : [
                0.6492853760719299,
                1.0844061374664307,
                0.22806979715824127
            ]
        },
        {
            "name" : "Node_19",
            "rotation" : [
                0,
                -0.516491174697876,
                -0.8562924861907959,
                7.207485452909168e-08
            ],
            "scale" : [
                0.3937007784843445,
                0.3937007784843445,
                0.3937007784843445
            ],
            "translation" : [
                0,
                1.4213037490844727,
                0.10339250415563583
            ]
        },
        {
            "name" : "Node_21",
            "rotation" : [
                0,
                0.17666208744049072,
                -0.9842715859413147,
                9.968342595811919e-08
            ],
            "scale" : [
                0.39370083808898926,
                0.39370083808898926,
                0.3937007784843445
            ],
            "translation" : [
                0,
                1.4115773439407349,
                0.34229499101638794
            ]
        },
        {
            "mesh" : 1,
            "name" : "RigLWing01Gizmo",
            "scale" : [
                0.02539999969303608,
                0.02540000155568123,
                0.02539999969303608
            ]
        },
        {
            "children" : [
                12
            ],
            "name" : "Node_23",
            "rotation" : [
                0.37438061833381653,
                0.5923274755477905,
                0.636393129825592,
                0.32247668504714966
            ],
            "scale" : [
                0.3937007784843445,
                0.3937007486820221,
                0.3937007784843445
            ],
            "translation" : [
                0.12118811905384064,
                1.099082589149475,
                -0.2916606664657593
            ]
        },
        {
            "name" : "Node_25",
            "rotation" : [
                0.1989273875951767,
                0.6791241765022278,
                0.6883158683776855,
                0.15949778258800507
            ],
            "scale" : [
                0.39370083808898926,
                0.39370080828666687,
                0.39370083808898926
            ],
            "translation" : [
                0.5080394744873047,
                1.3299903869628906,
                -0.2835613191127777
            ]
        },
        {
            "name" : "Node_27",
            "rotation" : [
                0.38878941535949707,
                0.5912907123565674,
                0.6116085052490234,
                0.3537699282169342
            ],
            "scale" : [
                0.39370080828666687,
                0.39370083808898926,
                0.39370083808898926
            ],
            "translation" : [
                0.7003201246261597,
                1.671614646911621,
                -0.2841742932796478
            ]
        },
        {
            "name" : "Node_29",
            "rotation" : [
                0.374380499124527,
                -0.5923274159431458,
                -0.636393129825592,
                0.32247671484947205
            ],
            "scale" : [
                0.3937007784843445,
                0.3937007486820221,
                0.3937007784843445
            ],
            "translation" : [
                -0.1211882159113884,
                1.099082589149475,
                -0.2916606068611145
            ]
        },
        {
            "name" : "Node_31",
            "rotation" : [
                0.19892723858356476,
                -0.6791242361068726,
                -0.6883158683776855,
                0.1594977229833603
            ],
            "scale" : [
                0.39370080828666687,
                0.39370083808898926,
                0.39370086789131165
            ],
            "translation" : [
                -0.5080395340919495,
                1.3299905061721802,
                -0.28356117010116577
            ]
        },
        {
            "name" : "Node_33",
            "rotation" : [
                0.38878917694091797,
                -0.5912907123565674,
                -0.611608624458313,
                0.3537698984146118
            ],
            "scale" : [
                0.3937007784843445,
                0.39370083808898926,
                0.3937007784843445
            ],
            "translation" : [
                -0.7003201246261597,
                1.6716150045394897,
                -0.2841741144657135
            ]
        },
        {
            "name" : "Node_35",
            "rotation" : [
                0,
                -0.978484034538269,
                0.20632247626781464,
                4.578345702554998e-09
            ],
            "scale" : [
                0.3937007486820221,
                0.3937007784843445,
                0.3937007784843445
            ],
            "translation" : [
                0,
                0.6695439219474792,
                -0.35221028327941895
            ]
        },
        {
            "name" : "Node_37",
            "rotation" : [
                0,
                -0.9954246282577515,
                0.09555090963840485,
                1.3972085710634019e-08
            ],
            "scale" : [
                0.3937009274959564,
                0.3937007784843445,
                0.39370089769363403
            ],
            "translation" : [
                0,
                0.5872034430503845,
                -0.5387789607048035
            ]
        },
        {
            "name" : "Node_39",
            "rotation" : [
                0,
                -0.9976742267608643,
                -0.06816265732049942,
                2.7357415888218384e-08
            ],
            "scale" : [
                0.3937007784843445,
                0.3937007784843445,
                0.39370080828666687
            ],
            "translation" : [
                0,
                0.5539148449897766,
                -0.7105774283409119
            ]
        },
        {
            "name" : "Node_41",
            "rotation" : [
                0,
                -0.989058256149292,
                -0.14752572774887085,
                3.363404488254673e-08
            ],
            "scale" : [
                0.39370083808898926,
                0.3937007784843445,
                0.39370083808898926
            ],
            "translation" : [
                0,
                0.5818601250648499,
                -0.9141355752944946
            ]
        },
        {
            "name" : "Node_43",
            "rotation" : [
                0,
                -0.9591388702392578,
                -0.2829356789588928,
                4.4010697308749513e-08
            ],
            "scale" : [
                0.3937007188796997,
                0.3937007784843445,
                0.3937007784843445
            ],
            "translation" : [
                0,
                0.6439963579177856,
                -1.1177918910980225
            ]
        },
        {
            "name" : "Node_45",
            "rotation" : [
                0,
                -0.9234152436256409,
                -0.3838024139404297,
                5.1446548354761035e-08
            ],
            "scale" : [
                0.3937007784843445,
                0.3937007784843445,
                0.3937007784843445
            ],
            "translation" : [
                0,
                0.739194929599762,
                -1.2651100158691406
            ]
        },
        {
            "name" : "Node_47",
            "rotation" : [
                0,
                -0.8787663578987122,
                -0.47725218534469604,
                5.8083180931589595e-08
            ],
            "scale" : [
                0.3937007784843445,
                0.3937007784843445,
                0.3937007784843445
            ],
            "translation" : [
                0,
                0.8614425659179688,
                -1.3867666721343994
            ]
        },
        {
            "name" : "Node_49",
            "rotation" : [
                0,
                -0.816701352596283,
                -0.5770605802536011,
                6.485711878667644e-08
            ],
            "scale" : [
                0.3937007784843445,
                0.3937007784843445,
                0.3937007784843445
            ],
            "translation" : [
                0,
                1.027846097946167,
                -1.4947799444198608
            ]
        }
    ],
    "materials" : [
        {
            "name" : "Material__2",
            "pbrMetallicRoughness" : {
                "baseColorFactor" : [
                    0.5879999995231628,
                    0.5879999995231628,
                    0.5879999995231628,
                    1
                ],
                "baseColorTexture" : {
                    "index" : 0
                },
                "metallicFactor" : 0,
                "roughnessFactor" : 0.8999999761581421
            }
        },
        {
            "name" : "fallback Material.010",
            "pbrMetallicRoughness" : {
                "baseColorFactor" : [
                    0.529411792755127,
                    0.0235294122248888,
                    0.0235294122248888,
                    1
                ]
            }
        }
    ],
    "meshes" : [
        {
            "name" : "Dragon Fire",
            "primitives" : [
                {
                    "attributes" : {
                        "POSITION" : 0,
                        "TEXCOORD_0" : 1,
                        "NORMAL" : 2
                    },
                    "indices" : 3,
                    "material" : 0
                }
            ]
        },
        {
            "name" : "RigLWing01Gizmo",
            "primitives" : [
                {
                    "attributes" : {
                        "POSITION" : 4,
                        "NORMAL" : 5
                    },
                    "indices" : 6,
                    "material" : 1
                }
            ]
        }
    ],
    "textures" : [
        {
            "sampler" : 0,
            "source" : 0
        }
    ],
    "images" : [
        {
            "bufferView" : 4,
            "mimeType" : "image/png",
            "name" : "Material__2basecolortexture"
        }
    ],
    "accessors" : [
        {
            "bufferView" : 0,
            "componentType" : 5126,
            "count" : 1843,
            "max" : [
                164.63160705566406,
                156.0361328125,
                219.25978088378906
            ],
            "min" : [
                -164.6315460205078,
                -78.4216537475586,
                1.4106045961380005
            ],
            "type" : "VEC3"
        },
        {
            "bufferView" : 1,
            "componentType" : 5126,
            "count" : 1843,
            "type" : "VEC2"
        },
        {
            "bufferView" : 2,
            "componentType" : 5126,
            "count" : 1843,
            "type" : "VEC3"
        },
        {
            "bufferView" : 3,
            "componentType" : 5123,
            "count" : 8094,
            "type" : "SCALAR"
        },
        {
            "bufferView" : 5,
            "componentType" : 5126,
            "count" : 41,
            "max" : [
                21.899999618530273,
                21.899999618530273,
                0
            ],
            "min" : [
                -21.899999618530273,
                -21.899999618530273,
                0
            ],
            "type" : "VEC3"
        },
        {
            "bufferView" : 6,
            "componentType" : 5126,
            "count" : 41,
            "type" : "VEC3"
        },
        {
            "bufferView" : 7,
            "componentType" : 5123,
            "count" : 78,
            "type" : "SCALAR"
        }
    ],
    "bufferViews" : [
        {
            "buffer" : 0,
            "byteLength" : 22116,
            "byteOffset" : 0,
            "target" : 34962
        },
        {
            "buffer" : 0,
            "byteLength" : 14744,
            "byteOffset" : 22116,
            "target" : 34962
        },
        {
            "buffer" : 0,
            "byteLength" : 22116,
            "byteOffset" : 36860,
            "target" : 34962
        },
        {
            "buffer" : 0,
            "byteLength" : 16188,
            "byteOffset" : 58976,
            "target" : 34963
        },
        {
            "buffer" : 0,
            "byteLength" : 2100058,
            "byteOffset" : 75164
        },
        {
            "buffer" : 0,
            "byteLength" : 492,
            "byteOffset" : 2175224,
            "target" : 34962
        },
        {
            "buffer" : 0,
            "byteLength" : 492,
            "byteOffset" : 2175716,
            "target" : 34962
        },
        {
            "buffer" : 0,
            "byteLength" : 156,
            "byteOffset" : 2176208,
            "target" : 34963
        }
    ],
    "samplers" : [
        {
            "magFilter" : 9729,
            "minFilter" : 9987
        }
    ],
    "buffers" : [
        {
            "byteLength" : 2176364,
            "uri" : "data:application/octet-stream;base64,"
        }
    ]
}
