{
    "asset" : {
        "generator" : "Khronos glTF Blender I/O v3.4.50",
        "version" : "2.0"
    },
    "scene" : 0,
    "scenes" : [
        {
            "name" : "Scene",
            "nodes" : [
                1
            ]
        }
    ],
    "nodes" : [
        {
            "mesh" : 0,
            "name" : "Golem_Ice",
            "scale" : [
                0.02539999969303608,
                0.02539999969303608,
                0.02539999969303608
            ]
        },
        {
            "children" : [
                0
            ],
            "name" : "Node_1",
            "rotation" : [
                -0.7071070075035095,
                0,
                0,
                0.7071065902709961
            ],
            "scale" : [
                0.3937007784843445,
                0.3937007784843445,
                0.3937007784843445
            ],
            "translation" : [
                -0.2432200312614441,
                0,
                0.5132248997688293
            ]
        }
    ],
    "materials" : [
        {
            "name" : "_01___Default",
            "pbrMetallicRoughness" : {
                "baseColorFactor" : [
                    0.5882350206375122,
                    0.5882350206375122,
                    0.5882350206375122,
                    1
                ],
                "baseColorTexture" : {
                    "index" : 0
                },
                "metallicFactor" : 0,
                "roughnessFactor" : 0.8496240377426147
            }
        }
    ],
    "meshes" : [
        {
            "name" : "Golem_Ice",
            "primitives" : [
                {
                    "attributes" : {
                        "POSITION" : 0,
                        "TEXCOORD_0" : 1,
                        "NORMAL" : 2
                    },
                    "indices" : 3,
                    "material" : 0
                }
            ]
        }
    ],
    "textures" : [
        {
            "sampler" : 0,
            "source" : 0
        }
    ],
    "images" : [
        {
            "bufferView" : 4,
            "mimeType" : "image/png",
            "name" : "_01___Defaultbasecolortexture"
        }
    ],
    "accessors" : [
        {
            "bufferView" : 0,
            "componentType" : 5126,
            "count" : 1678,
            "max" : [
                172.8889617919922,
                50.840538024902344,
                245.5070343017578
            ],
            "min" : [
                -169.02255249023438,
                -106.06251525878906,
                17.187761306762695
            ],
            "type" : "VEC3"
        },
        {
            "bufferView" : 1,
            "componentType" : 5126,
            "count" : 1678,
            "type" : "VEC2"
        },
        {
            "bufferView" : 2,
            "componentType" : 5126,
            "count" : 1678,
            "type" : "VEC3"
        },
        {
            "bufferView" : 3,
            "componentType" : 5123,
            "count" : 6954,
            "type" : "SCALAR"
        }
    ],
    "bufferViews" : [
        {
            "buffer" : 0,
            "byteLength" : 20136,
            "byteOffset" : 0,
            "target" : 34962
        },
        {
            "buffer" : 0,
            "byteLength" : 13424,
            "byteOffset" : 20136,
            "target" : 34962
        },
        {
            "buffer" : 0,
            "byteLength" : 20136,
            "byteOffset" : 33560,
            "target" : 34962
        },
        {
            "buffer" : 0,
            "byteLength" : 13908,
            "byteOffset" : 53696,
            "target" : 34963
        },
        {
            "buffer" : 0,
            "byteLength" : 710348,
            "byteOffset" : 67604
        }
    ],
    "samplers" : [
        {
            "magFilter" : 9729,
            "minFilter" : 9987
        }
    ],
    "buffers" : [
        {
            "byteLength" : 777952,
            "uri" : "data:application/octet-stream;base64,"
        }
    ]
}
