{
    "asset" : {
        "generator" : "Khronos glTF Blender I/O v3.4.50",
        "version" : "2.0"
    },
    "extensionsUsed" : [
        "KHR_materials_specular",
        "KHR_materials_ior"
    ],
    "scene" : 0,
    "scenes" : [
        {
            "name" : "Scene",
            "nodes" : [
                0,
                1,
                2,
                3,
                4,
                5,
                6,
                7,
                8,
                9,
                10,
                11,
                12,
                13,
                14,
                15,
                33
            ]
        }
    ],
    "nodes" : [
        {
            "name" : "Rig",
            "rotation" : [
                -0.70710688829422,
                -0.7071066498756409,
                0,
                5.338507236274381e-08
            ],
            "scale" : [
                0.009999999776482582,
                0.009999999776482582,
                0.009999999776482582
            ]
        },
        {
            "name" : "RigHeadGizmo",
            "rotation" : [
                0,
                -1,
                0,
                7.549789415861596e-08
            ],
            "scale" : [
                0.009999999776482582,
                0.009999999776482582,
                0.009999999776482582
            ],
            "translation" : [
                0,
                0.8493178486824036,
                -0.0013138436479493976
            ]
        },
        {
            "name" : "RigTail1Gizmo",
            "rotation" : [
                0,
                -0.08366449922323227,
                0.9964939951896667,
                6.565991839124763e-08
            ],
            "scale" : [
                0.009999999776482582,
                0.009999999776482582,
                0.009999999776482582
            ],
            "translation" : [
                0,
                0.7433265447616577,
                -0.07875408232212067
            ]
        },
        {
            "name" : "RigTail2Gizmo",
            "rotation" : [
                0,
                0.0015189045807346702,
                0.9999988675117493,
                7.567898308025178e-08
            ],
            "scale" : [
                0.009999999776482582,
                0.009999999776482582,
                0.009999999776482582
            ],
            "translation" : [
                0,
                0.6536897420883179,
                -0.09391254186630249
            ]
        },
        {
            "name" : "RigTail3Gizmo",
            "rotation" : [
                0,
                -0.20549146831035614,
                -0.97865891456604,
                4.927331787030198e-08
            ],
            "scale" : [
                0.009999999776482582,
                0.009999998845160007,
                0.009999998845160007
            ],
            "translation" : [
                0,
                0.5775824785232544,
                -0.09368134289979935
            ]
        },
        {
            "name" : "RigHubGizmo",
            "rotation" : [
                0,
                -0.9848077893257141,
                -0.17364807426929474,
                8.36991702612977e-08
            ],
            "scale" : [
                0.009999999776482582,
                0.009999999776482582,
                0.009999999776482582
            ],
            "translation" : [
                0,
                0.7433265447616577,
                -0.07875408232212067
            ]
        },
        {
            "name" : "RigTail4Gizmo",
            "rotation" : [
                0,
                -0.211832195520401,
                -0.977306067943573,
                4.846603829378182e-08
            ],
            "scale" : [
                0.009999999776482582,
                0.009999999776482582,
                0.009999999776482582
            ],
            "translation" : [
                0,
                0.5092218518257141,
                -0.06364959478378296
            ]
        },
        {
            "name" : "RigTail5Gizmo",
            "rotation" : [
                0,
                -0.3420201539993286,
                -0.9396926164627075,
                3.315793506430964e-08
            ],
            "scale" : [
                0.009999999776482582,
                0.009999999776482582,
                0.009999999776482582
            ],
            "translation" : [
                0,
                0.452614426612854,
                -0.0379004143178463
            ]
        },
        {
            "name" : "RigWingRGizmo",
            "rotation" : [
                0.14454394578933716,
                -0.8516507148742676,
                0.39713141322135925,
                0.30997541546821594
            ],
            "scale" : [
                0.009999998845160007,
                0.009999998845160007,
                0.009999998845160007
            ],
            "translation" : [
                -0.016884848475456238,
                0.9434136152267456,
                -0.13847936689853668
            ]
        },
        {
            "name" : "RigWingLGizmo",
            "rotation" : [
                0.1445438116788864,
                0.8516507148742676,
                -0.3971313536167145,
                0.3099754750728607
            ],
            "scale" : [
                0.009999999776482582,
                0.009999999776482582,
                0.009999999776482582
            ],
            "translation" : [
                0.016884813085198402,
                0.9434136152267456,
                -0.13847936689853668
            ]
        },
        {
            "name" : "RigFeelerR1Gizmo",
            "rotation" : [
                0.19963718950748444,
                -0.9798699021339417,
                0,
                1.667890359158264e-07
            ],
            "scale" : [
                0.009999999776482582,
                0.009999999776482582,
                0.009999999776482582
            ],
            "translation" : [
                -0.019659971818327904,
                1.161541223526001,
                0.17695671319961548
            ]
        },
        {
            "name" : "RigFeelerL1Gizmo",
            "rotation" : [
                -0.19963718950748444,
                -0.9798699021339417,
                0,
                9.524413258077402e-08
            ],
            "scale" : [
                0.009999998845160007,
                0.009999998845160007,
                0.009999999776482582
            ],
            "translation" : [
                0.019659949466586113,
                1.161541223526001,
                0.17695671319961548
            ]
        },
        {
            "name" : "RigFeelerL2Gizmo",
            "rotation" : [
                -0.25335538387298584,
                -0.9673733711242676,
                0,
                1.0712952303038037e-07
            ],
            "scale" : [
                0.009999999776482582,
                0.009999999776482582,
                0.009999999776482582
            ],
            "translation" : [
                0.06514117866754532,
                1.2685248851776123,
                0.1769566833972931
            ]
        },
        {
            "name" : "RigFeelerR2Gizmo",
            "rotation" : [
                0.253355473279953,
                -0.967373251914978,
                0,
                1.486712761789022e-07
            ],
            "scale" : [
                0.009999999776482582,
                0.009999999776482582,
                0.009999999776482582
            ],
            "translation" : [
                -0.06514120101928711,
                1.2685248851776123,
                0.1769566833972931
            ]
        },
        {
            "name" : "RigFeelerL3Gizmo",
            "rotation" : [
                -0.3826833963394165,
                -0.9238795638084412,
                0,
                1.658844972496354e-08
            ],
            "scale" : [
                0.009999999776482582,
                0.009999999776482582,
                0.009999999776482582
            ],
            "translation" : [
                0.11535098403692245,
                1.3578065633773804,
                0.1769566684961319
            ]
        },
        {
            "name" : "RigFeelerR3Gizmo",
            "rotation" : [
                0.3826834559440613,
                -0.9238795042037964,
                0,
                1.1145688461056125e-07
            ],
            "scale" : [
                0.009999999776482582,
                0.009999999776482582,
                0.009999999776482582
            ],
            "translation" : [
                -0.11535100638866425,
                1.3578065633773804,
                0.1769566684961319
            ]
        },
        {
            "name" : "RigTail5",
            "rotation" : [
                9.744622886387333e-09,
                -5.7562669297794855e-08,
                -0.13520114123821259,
                0.990818202495575
            ],
            "translation" : [
                6.218859672546387,
                -7.152557373046875e-06,
                6.441556479330757e-07
            ]
        },
        {
            "children" : [
                16
            ],
            "name" : "RigTail4",
            "rotation" : [
                6.914727679330213e-10,
                -4.276256682089752e-09,
                -0.006483445875346661,
                0.9999790191650391
            ],
            "scale" : [
                0.9999998807907104,
                0.9999998807907104,
                1
            ],
            "translation" : [
                7.466627597808838,
                -1.52587890625e-05,
                8.184094895113958e-07
            ]
        },
        {
            "children" : [
                17
            ],
            "name" : "RigTail3",
            "rotation" : [
                8.32831315022986e-09,
                2.7629015519892164e-08,
                -0.20400480926036835,
                0.978969931602478
            ],
            "scale" : [
                0.9999999403953552,
                0.9999999403953552,
                1
            ],
            "translation" : [
                7.610761642456055,
                -1.049041748046875e-05,
                -2.1297924490681908e-07
            ]
        },
        {
            "children" : [
                18
            ],
            "name" : "RigTail2",
            "rotation" : [
                -4.66153604605779e-09,
                1.00285255655308e-08,
                -0.08517762273550034,
                0.9963657855987549
            ],
            "scale" : [
                1,
                0.9999998807907104,
                1
            ],
            "translation" : [
                9.0909423828125,
                -3.814697265625e-06,
                -7.400414006042411e-07
            ]
        },
        {
            "children" : [
                19
            ],
            "name" : "RigTail1",
            "rotation" : [
                1.695799234369133e-08,
                1.8575020988009783e-07,
                0.9958832263946533,
                0.09064573049545288
            ],
            "scale" : [
                1.0000011920928955,
                1,
                1.0000001192092896
            ],
            "translation" : [
                -1.1920928955078125e-06,
                3.337860107421875e-06,
                -4.839614575757878e-08
            ]
        },
        {
            "name" : "RigFeelerR3",
            "rotation" : [
                -8.018403008236419e-08,
                0.13612788915634155,
                -5.8007000092175076e-08,
                0.9906913042068481
            ],
            "translation" : [
                10.24316692352295,
                1.4787103737035068e-06,
                -4.5387123464024626e-06
            ]
        },
        {
            "children" : [
                21
            ],
            "name" : "RigFeelerR2",
            "rotation" : [
                1.998572507488916e-08,
                0.05513172596693039,
                1.1035345970356047e-09,
                0.9984791278839111
            ],
            "scale" : [
                1.0000001192092896,
                1,
                1
            ],
            "translation" : [
                11.624991416931152,
                -5.467039045470301e-06,
                -4.79658592666965e-06
            ]
        },
        {
            "children" : [
                22
            ],
            "name" : "RigFeelerR1",
            "rotation" : [
                1.0048148979535654e-08,
                0.19963712990283966,
                2.0471955242129525e-09,
                0.9798699021339417
            ],
            "translation" : [
                31.222347259521484,
                17.82706642150879,
                -1.9659968614578247
            ]
        },
        {
            "name" : "RigFeelerL3",
            "rotation" : [
                1.2689085338024597e-07,
                -0.13612781465053558,
                -1.1141385414248361e-07,
                0.9906913042068481
            ],
            "scale" : [
                1,
                1,
                0.9999999403953552
            ],
            "translation" : [
                10.243180274963379,
                1.497896846558433e-06,
                -1.268414780497551e-05
            ]
        },
        {
            "children" : [
                24
            ],
            "name" : "RigFeelerL2",
            "rotation" : [
                -3.7820555576217885e-08,
                -0.055131759494543076,
                2.0882879869787985e-09,
                0.9984791278839111
            ],
            "scale" : [
                1,
                1.0000001192092896,
                1
            ],
            "translation" : [
                11.62498950958252,
                5.624134246318135e-06,
                -1.861749979070737e-06
            ]
        },
        {
            "children" : [
                25
            ],
            "name" : "RigFeelerL1",
            "rotation" : [
                -1.5072243897407134e-08,
                -0.19963717460632324,
                3.0708020570813233e-09,
                0.9798699021339417
            ],
            "scale" : [
                0.9999999403953552,
                1,
                1
            ],
            "translation" : [
                31.222347259521484,
                17.82706642150879,
                1.965994954109192
            ]
        },
        {
            "children" : [
                23,
                26
            ],
            "name" : "RigHead",
            "rotation" : [
                4.6702112399543694e-08,
                -1.9711467302840902e-07,
                -0.3102859556674957,
                0.9506433010101318
            ],
            "scale" : [
                0.9999999403953552,
                1.0000001192092896,
                1.0000001192092896
            ],
            "translation" : [
                13.126748085021973,
                -4.1723260437720455e-06,
                -3.668058923267381e-07
            ]
        },
        {
            "children" : [
                27
            ],
            "name" : "RigNeck",
            "rotation" : [
                -3.1473735617737475e-08,
                1.308359287577332e-07,
                0.14049465954303741,
                0.9900814294815063
            ],
            "scale" : [
                1.0000001192092896,
                1.0000001192092896,
                1.0000001192092896
            ],
            "translation" : [
                -1.1920928955078125e-06,
                3.337860107421875e-06,
                -4.839614575757878e-08
            ]
        },
        {
            "name" : "RigWingR",
            "rotation" : [
                0.3303658962249756,
                0.08852129429578781,
                -0.5389854907989502,
                0.769751250743866
            ],
            "translation" : [
                16.759309768676758,
                -12.45571231842041,
                -1.6884821653366089
            ]
        },
        {
            "name" : "RigWingL",
            "rotation" : [
                -0.3303661048412323,
                -0.08852145820856094,
                -0.538985550403595,
                0.7697511315345764
            ],
            "scale" : [
                0.9999999403953552,
                0.9999999403953552,
                1
            ],
            "translation" : [
                16.759307861328125,
                -12.45571517944336,
                1.6884839534759521
            ]
        },
        {
            "children" : [
                20,
                28,
                29,
                30
            ],
            "name" : "RigHub",
            "rotation" : [
                0.12278775870800018,
                0.6963642835617065,
                0.12278762459754944,
                0.6963642835617065
            ],
            "scale" : [
                1,
                1,
                1.0000001192092896
            ],
            "translation" : [
                3.442439719947288e-07,
                -7.875408172607422,
                -74.33265686035156
            ]
        },
        {
            "mesh" : 0,
            "name" : "Bumble",
            "skin" : 0
        },
        {
            "children" : [
                32,
                31
            ],
            "name" : "Armature",
            "rotation" : [
                0.70710688829422,
                0,
                0,
                0.7071066498756409
            ],
            "scale" : [
                0.009999999776482582,
                0.009999999776482582,
                0.009999999776482582
            ]
        }
    ],
    "materials" : [
        {
            "doubleSided" : true,
            "extensions" : {
                "KHR_materials_specular" : {
                    "specularColorFactor" : [
                        0,
                        0,
                        0
                    ]
                },
                "KHR_materials_ior" : {
                    "ior" : 1.4500000476837158
                }
            },
            "name" : "07 - Default",
            "pbrMetallicRoughness" : {
                "baseColorTexture" : {
                    "index" : 0
                },
                "roughnessFactor" : 0.858578622341156
            }
        }
    ],
    "meshes" : [
        {
            "name" : "Mesh",
            "primitives" : [
                {
                    "attributes" : {
                        "POSITION" : 0,
                        "TEXCOORD_0" : 1,
                        "NORMAL" : 2,
                        "JOINTS_0" : 3,
                        "WEIGHTS_0" : 4
                    },
                    "indices" : 5,
                    "material" : 0
                }
            ]
        }
    ],
    "textures" : [
        {
            "sampler" : 0,
            "source" : 0
        }
    ],
    "images" : [
        {
            "bufferView" : 6,
            "mimeType" : "image/png",
            "name" : "Map #2"
        }
    ],
    "skins" : [
        {
            "inverseBindMatrices" : 6,
            "joints" : [
                31,
                20,
                19,
                18,
                17,
                16,
                28,
                27,
                23,
                22,
                21,
                26,
                25,
                24,
                29,
                30
            ],
            "name" : "Armature"
        }
    ],
    "accessors" : [
        {
            "bufferView" : 0,
            "componentType" : 5126,
            "count" : 1107,
            "max" : [
                0.255761981010437,
                1.4235866069793701,
                0.3430440127849579
            ],
            "min" : [
                -0.25576189160346985,
                0.31747815012931824,
                -0.45619845390319824
            ],
            "type" : "VEC3"
        },
        {
            "bufferView" : 1,
            "componentType" : 5126,
            "count" : 1107,
            "type" : "VEC2"
        },
        {
            "bufferView" : 2,
            "componentType" : 5126,
            "count" : 1107,
            "type" : "VEC3"
        },
        {
            "bufferView" : 3,
            "componentType" : 5121,
            "count" : 1107,
            "type" : "VEC4"
        },
        {
            "bufferView" : 4,
            "componentType" : 5126,
            "count" : 1107,
            "type" : "VEC4"
        },
        {
            "bufferView" : 5,
            "componentType" : 5123,
            "count" : 3918,
            "type" : "SCALAR"
        },
        {
            "bufferView" : 7,
            "componentType" : 5126,
            "count" : 16,
            "type" : "MAT4"
        }
    ],
    "bufferViews" : [
        {
            "buffer" : 0,
            "byteLength" : 13284,
            "byteOffset" : 0,
            "target" : 34962
        },
        {
            "buffer" : 0,
            "byteLength" : 8856,
            "byteOffset" : 13284,
            "target" : 34962
        },
        {
            "buffer" : 0,
            "byteLength" : 13284,
            "byteOffset" : 22140,
            "target" : 34962
        },
        {
            "buffer" : 0,
            "byteLength" : 4428,
            "byteOffset" : 35424,
            "target" : 34962
        },
        {
            "buffer" : 0,
            "byteLength" : 17712,
            "byteOffset" : 39852,
            "target" : 34962
        },
        {
            "buffer" : 0,
            "byteLength" : 7836,
            "byteOffset" : 57564,
            "target" : 34963
        },
        {
            "buffer" : 0,
            "byteLength" : 72464,
            "byteOffset" : 65400
        },
        {
            "buffer" : 0,
            "byteLength" : 1024,
            "byteOffset" : 137864
        }
    ],
    "samplers" : [
        {
            "magFilter" : 9729,
            "minFilter" : 9987
        }
    ],
    "buffers" : [
        {
            "byteLength" : 138888,
            "uri" : "data:application/octet-stream;base64,"
        }
    ]
}
