{
    "asset" : {
        "generator" : "Khronos glTF Blender I/O v3.4.50",
        "version" : "2.0"
    },
    "scene" : 0,
    "scenes" : [
        {
            "name" : "Scene",
            "nodes" : [
                1
            ]
        }
    ],
    "nodes" : [
        {
            "mesh" : 0,
            "name" : "Gloom_1",
            "scale" : [
                0.02539999969303608,
                0.02539999969303608,
                0.02539999969303608
            ]
        },
        {
            "children" : [
                0
            ],
            "name" : "Node_1",
            "rotation" : [
                -0.7071070075035095,
                0,
                0,
                0.7071065902709961
            ],
            "scale" : [
                0.3937007784843445,
                0.3937007784843445,
                0.3937007784843445
            ],
            "translation" : [
                0.007821809500455856,
                0,
                0.08335604518651962
            ]
        }
    ],
    "materials" : [
        {
            "name" : "_01___Default",
            "pbrMetallicRoughness" : {
                "baseColorTexture" : {
                    "index" : 0
                },
                "metallicFactor" : 0,
                "roughnessFactor" : 0.8999999761581421
            }
        }
    ],
    "meshes" : [
        {
            "name" : "Gloom_1",
            "primitives" : [
                {
                    "attributes" : {
                        "POSITION" : 0,
                        "TEXCOORD_0" : 1,
                        "NORMAL" : 2
                    },
                    "indices" : 3,
                    "material" : 0
                }
            ]
        }
    ],
    "textures" : [
        {
            "sampler" : 0,
            "source" : 0
        }
    ],
    "images" : [
        {
            "bufferView" : 4,
            "mimeType" : "image/png",
            "name" : "_01___Defaultbasecolortexture"
        }
    ],
    "accessors" : [
        {
            "bufferView" : 0,
            "componentType" : 5126,
            "count" : 637,
            "max" : [
                48.257362365722656,
                52.42662811279297,
                154.22618103027344
            ],
            "min" : [
                -48.25738525390625,
                -35.039161682128906,
                27.701976776123047
            ],
            "type" : "VEC3"
        },
        {
            "bufferView" : 1,
            "componentType" : 5126,
            "count" : 637,
            "type" : "VEC2"
        },
        {
            "bufferView" : 2,
            "componentType" : 5126,
            "count" : 637,
            "type" : "VEC3"
        },
        {
            "bufferView" : 3,
            "componentType" : 5123,
            "count" : 1782,
            "type" : "SCALAR"
        }
    ],
    "bufferViews" : [
        {
            "buffer" : 0,
            "byteLength" : 7644,
            "byteOffset" : 0,
            "target" : 34962
        },
        {
            "buffer" : 0,
            "byteLength" : 5096,
            "byteOffset" : 7644,
            "target" : 34962
        },
        {
            "buffer" : 0,
            "byteLength" : 7644,
            "byteOffset" : 12740,
            "target" : 34962
        },
        {
            "buffer" : 0,
            "byteLength" : 3564,
            "byteOffset" : 20384,
            "target" : 34963
        },
        {
            "buffer" : 0,
            "byteLength" : 698808,
            "byteOffset" : 23948
        }
    ],
    "samplers" : [
        {
            "magFilter" : 9729,
            "minFilter" : 9987
        }
    ],
    "buffers" : [
        {
            "byteLength" : 722756,
            "uri" : "data:application/octet-stream;base64,"
        }
    ]
}
