{
    "asset" : {
        "generator" : "Khronos glTF Blender I/O v3.4.50",
        "version" : "2.0"
    },
    "scene" : 0,
    "scenes" : [
        {
            "name" : "Scene",
            "nodes" : [
                0,
                2
            ]
        }
    ],
    "nodes" : [
        {
            "name" : "Node_1",
            "rotation" : [
                -0.7071070075035095,
                0,
                0,
                0.7071065902709961
            ],
            "scale" : [
                0.3937007784843445,
                0.3937007784843445,
                0.3937007784843445
            ],
            "translation" : [
                -0.003304061945527792,
                0,
                0.23084908723831177
            ]
        },
        {
            "mesh" : 0,
            "name" : "Golem_Fire_1",
            "scale" : [
                0.02539999969303608,
                0.02539999969303608,
                0.02539999969303608
            ]
        },
        {
            "children" : [
                1
            ],
            "name" : "Node_1.001",
            "rotation" : [
                -0.7071070075035095,
                0,
                0,
                0.7071065902709961
            ],
            "scale" : [
                0.3937007784843445,
                0.3937007784843445,
                0.3937007784843445
            ],
            "translation" : [
                -0.003304061945527792,
                0,
                0.23084908723831177
            ]
        }
    ],
    "materials" : [
        {
            "name" : "_01___Default.001",
            "pbrMetallicRoughness" : {
                "baseColorFactor" : [
                    0.5882350206375122,
                    0.5882350206375122,
                    0.5882350206375122,
                    1
                ],
                "baseColorTexture" : {
                    "index" : 0
                },
                "metallicFactor" : 0,
                "roughnessFactor" : 0.8500000238418579
            }
        }
    ],
    "meshes" : [
        {
            "name" : "Golem_Fire_1.001",
            "primitives" : [
                {
                    "attributes" : {
                        "POSITION" : 0,
                        "TEXCOORD_0" : 1,
                        "NORMAL" : 2
                    },
                    "indices" : 3,
                    "material" : 0
                }
            ]
        }
    ],
    "textures" : [
        {
            "sampler" : 0,
            "source" : 0
        }
    ],
    "images" : [
        {
            "bufferView" : 4,
            "mimeType" : "image/png",
            "name" : "_01___Defaultbasecolortexture"
        }
    ],
    "accessors" : [
        {
            "bufferView" : 0,
            "componentType" : 5126,
            "count" : 2647,
            "max" : [
                132.03770446777344,
                44.8588752746582,
                278.4064025878906
            ],
            "min" : [
                -132.0377655029297,
                -67.61333465576172,
                4.538464069366455
            ],
            "type" : "VEC3"
        },
        {
            "bufferView" : 1,
            "componentType" : 5126,
            "count" : 2647,
            "type" : "VEC2"
        },
        {
            "bufferView" : 2,
            "componentType" : 5126,
            "count" : 2647,
            "type" : "VEC3"
        },
        {
            "bufferView" : 3,
            "componentType" : 5123,
            "count" : 6306,
            "type" : "SCALAR"
        }
    ],
    "bufferViews" : [
        {
            "buffer" : 0,
            "byteLength" : 31764,
            "byteOffset" : 0,
            "target" : 34962
        },
        {
            "buffer" : 0,
            "byteLength" : 21176,
            "byteOffset" : 31764,
            "target" : 34962
        },
        {
            "buffer" : 0,
            "byteLength" : 31764,
            "byteOffset" : 52940,
            "target" : 34962
        },
        {
            "buffer" : 0,
            "byteLength" : 12612,
            "byteOffset" : 84704,
            "target" : 34963
        },
        {
            "buffer" : 0,
            "byteLength" : 605927,
            "byteOffset" : 97316
        }
    ],
    "samplers" : [
        {
            "magFilter" : 9729,
            "minFilter" : 9987
        }
    ],
    "buffers" : [
        {
            "byteLength" : 703244,
            "uri" : "data:application/octet-stream;base64,"
        }
    ]
}
