{
    "asset" : {
        "generator" : "Khronos glTF Blender I/O v3.4.50",
        "version" : "2.0"
    },
    "scene" : 0,
    "scenes" : [
        {
            "name" : "Scene",
            "nodes" : [
                1,
                3
            ]
        }
    ],
    "nodes" : [
        {
            "mesh" : 0,
            "name" : "Grim_Reaper_1",
            "scale" : [
                0.02539999969303608,
                0.02539999969303608,
                0.02539999969303608
            ]
        },
        {
            "children" : [
                0
            ],
            "name" : "Node_1",
            "rotation" : [
                -0.7071070075035095,
                0,
                0,
                0.7071065902709961
            ],
            "scale" : [
                0.3937007784843445,
                0.3937007784843445,
                0.3937007784843445
            ],
            "translation" : [
                -0.13314691185951233,
                0,
                0.16702429950237274
            ]
        },
        {
            "mesh" : 1,
            "name" : "Weapon",
            "scale" : [
                0.02539999783039093,
                0.02539999969303608,
                0.02539999969303608
            ]
        },
        {
            "children" : [
                2
            ],
            "name" : "Node_3",
            "rotation" : [
                -0.7071089148521423,
                -3.885470050590811e-06,
                -3.3695534966682317e-06,
                0.7071046233177185
            ],
            "scale" : [
                0.39369770884513855,
                0.3937009871006012,
                0.39370328187942505
            ],
            "translation" : [
                -0.9374117851257324,
                0.8607437014579773,
                0.1670200675725937
            ]
        }
    ],
    "materials" : [
        {
            "name" : "_01___Default",
            "pbrMetallicRoughness" : {
                "baseColorFactor" : [
                    0.5882350206375122,
                    0.5882350206375122,
                    0.5882350206375122,
                    1
                ],
                "baseColorTexture" : {
                    "index" : 0
                },
                "metallicFactor" : 0,
                "roughnessFactor" : 0.8496240377426147
            }
        }
    ],
    "meshes" : [
        {
            "name" : "Grim_Reaper_1",
            "primitives" : [
                {
                    "attributes" : {
                        "POSITION" : 0,
                        "TEXCOORD_0" : 1,
                        "NORMAL" : 2
                    },
                    "indices" : 3,
                    "material" : 0
                }
            ]
        },
        {
            "name" : "Weapon",
            "primitives" : [
                {
                    "attributes" : {
                        "POSITION" : 4,
                        "TEXCOORD_0" : 5,
                        "NORMAL" : 6
                    },
                    "indices" : 7,
                    "material" : 0
                }
            ]
        }
    ],
    "textures" : [
        {
            "sampler" : 0,
            "source" : 0
        }
    ],
    "images" : [
        {
            "bufferView" : 4,
            "mimeType" : "image/png",
            "name" : "_01___Defaultbasecolortexture"
        }
    ],
    "accessors" : [
        {
            "bufferView" : 0,
            "componentType" : 5126,
            "count" : 905,
            "max" : [
                53.16886901855469,
                50.262351989746094,
                183.5005645751953
            ],
            "min" : [
                -53.168853759765625,
                -33.83275604248047,
                35.75051498413086
            ],
            "type" : "VEC3"
        },
        {
            "bufferView" : 1,
            "componentType" : 5126,
            "count" : 905,
            "type" : "VEC2"
        },
        {
            "bufferView" : 2,
            "componentType" : 5126,
            "count" : 905,
            "type" : "VEC3"
        },
        {
            "bufferView" : 3,
            "componentType" : 5123,
            "count" : 2766,
            "type" : "SCALAR"
        },
        {
            "bufferView" : 5,
            "componentType" : 5126,
            "count" : 531,
            "max" : [
                36.24225997924805,
                9.59065055847168,
                85.49018859863281
            ],
            "min" : [
                -72.90982818603516,
                -9.590651512145996,
                -61.36463928222656
            ],
            "type" : "VEC3"
        },
        {
            "bufferView" : 6,
            "componentType" : 5126,
            "count" : 531,
            "type" : "VEC2"
        },
        {
            "bufferView" : 7,
            "componentType" : 5126,
            "count" : 531,
            "type" : "VEC3"
        },
        {
            "bufferView" : 8,
            "componentType" : 5123,
            "count" : 1368,
            "type" : "SCALAR"
        }
    ],
    "bufferViews" : [
        {
            "buffer" : 0,
            "byteLength" : 10860,
            "byteOffset" : 0,
            "target" : 34962
        },
        {
            "buffer" : 0,
            "byteLength" : 7240,
            "byteOffset" : 10860,
            "target" : 34962
        },
        {
            "buffer" : 0,
            "byteLength" : 10860,
            "byteOffset" : 18100,
            "target" : 34962
        },
        {
            "buffer" : 0,
            "byteLength" : 5532,
            "byteOffset" : 28960,
            "target" : 34963
        },
        {
            "buffer" : 0,
            "byteLength" : 962114,
            "byteOffset" : 34492
        },
        {
            "buffer" : 0,
            "byteLength" : 6372,
            "byteOffset" : 996608,
            "target" : 34962
        },
        {
            "buffer" : 0,
            "byteLength" : 4248,
            "byteOffset" : 1002980,
            "target" : 34962
        },
        {
            "buffer" : 0,
            "byteLength" : 6372,
            "byteOffset" : 1007228,
            "target" : 34962
        },
        {
            "buffer" : 0,
            "byteLength" : 2736,
            "byteOffset" : 1013600,
            "target" : 34963
        }
    ],
    "samplers" : [
        {
            "magFilter" : 9729,
            "minFilter" : 9987
        }
    ],
    "buffers" : [
        {
            "byteLength" : 1016336,
            "uri" : "data:application/octet-stream;base64,"
        }
    ]
}
