{
    "asset" : {
        "generator" : "Khronos glTF Blender I/O v3.4.50",
        "version" : "2.0"
    },
    "scene" : 0,
    "scenes" : [
        {
            "name" : "Scene",
            "nodes" : [
                1
            ]
        }
    ],
    "nodes" : [
        {
            "mesh" : 0,
            "name" : "Plant_Chewer_1",
            "scale" : [
                0.02539999969303608,
                0.02539999969303608,
                0.02539999969303608
            ]
        },
        {
            "children" : [
                0
            ],
            "name" : "Node_1",
            "rotation" : [
                -0.7071070075035095,
                0,
                0,
                0.7071065902709961
            ],
            "scale" : [
                0.3937007784843445,
                0.3937007784843445,
                0.3937007784843445
            ],
            "translation" : [
                0.04558442533016205,
                0,
                0.1816861927509308
            ]
        }
    ],
    "materials" : [
        {
            "name" : "Material__0",
            "pbrMetallicRoughness" : {
                "baseColorTexture" : {
                    "index" : 0
                },
                "metallicFactor" : 0,
                "roughnessFactor" : 0.8496240377426147
            }
        }
    ],
    "meshes" : [
        {
            "name" : "Plant_Chewer_1",
            "primitives" : [
                {
                    "attributes" : {
                        "POSITION" : 0,
                        "TEXCOORD_0" : 1,
                        "NORMAL" : 2
                    },
                    "indices" : 3,
                    "material" : 0
                }
            ]
        }
    ],
    "textures" : [
        {
            "sampler" : 0,
            "source" : 0
        }
    ],
    "images" : [
        {
            "bufferView" : 4,
            "mimeType" : "image/png",
            "name" : "Material__0basecolortexture"
        }
    ],
    "accessors" : [
        {
            "bufferView" : 0,
            "componentType" : 5126,
            "count" : 954,
            "max" : [
                143.9354248046875,
                108.12627410888672,
                190.46006774902344
            ],
            "min" : [
                -143.93533325195312,
                -53.04875946044922,
                -1.1210603713989258
            ],
            "type" : "VEC3"
        },
        {
            "bufferView" : 1,
            "componentType" : 5126,
            "count" : 954,
            "type" : "VEC2"
        },
        {
            "bufferView" : 2,
            "componentType" : 5126,
            "count" : 954,
            "type" : "VEC3"
        },
        {
            "bufferView" : 3,
            "componentType" : 5123,
            "count" : 3768,
            "type" : "SCALAR"
        }
    ],
    "bufferViews" : [
        {
            "buffer" : 0,
            "byteLength" : 11448,
            "byteOffset" : 0,
            "target" : 34962
        },
        {
            "buffer" : 0,
            "byteLength" : 7632,
            "byteOffset" : 11448,
            "target" : 34962
        },
        {
            "buffer" : 0,
            "byteLength" : 11448,
            "byteOffset" : 19080,
            "target" : 34962
        },
        {
            "buffer" : 0,
            "byteLength" : 7536,
            "byteOffset" : 30528,
            "target" : 34963
        },
        {
            "buffer" : 0,
            "byteLength" : 643773,
            "byteOffset" : 38064
        }
    ],
    "samplers" : [
        {
            "magFilter" : 9729,
            "minFilter" : 9987
        }
    ],
    "buffers" : [
        {
            "byteLength" : 681840,
            "uri" : "data:application/octet-stream;base64,"
        }
    ]
}
